<svg width="25" height="25" viewBox="0 0 25 25" fill="none" xmlns="http://www.w3.org/2000/svg">
<g opacity="0.9">
<path fill-rule="evenodd" clip-rule="evenodd" d="M6.97453 2.42578C7.21581 2.42578 7.44721 2.52163 7.61782 2.69224C7.78843 2.86285 7.88428 3.09425 7.88428 3.33553V4.85178H16.3753V3.33553C16.3753 3.09425 16.4711 2.86285 16.6417 2.69224C16.8124 2.52163 17.0437 2.42578 17.285 2.42578C17.5263 2.42578 17.7577 2.52163 17.9283 2.69224C18.0989 2.86285 18.1948 3.09425 18.1948 3.33553V4.85178H18.498C19.3827 4.85178 20.2312 5.20322 20.8568 5.8288C21.4823 6.45437 21.8338 7.30283 21.8338 8.18753V18.498C21.8338 19.3827 21.4823 20.2312 20.8568 20.8568C20.2312 21.4823 19.3827 21.8338 18.498 21.8338H5.76153C4.87683 21.8338 4.02837 21.4823 3.4028 20.8568C2.77723 20.2312 2.42578 19.3827 2.42578 18.498V8.18753C2.42578 7.30283 2.77723 6.45437 3.4028 5.8288C4.02837 5.20322 4.87683 4.85178 5.76153 4.85178H6.06478V3.33553C6.06478 3.09425 6.16063 2.86285 6.33124 2.69224C6.50185 2.52163 6.73325 2.42578 6.97453 2.42578ZM5.76153 9.09728C4.92456 9.09728 4.24528 9.77656 4.24528 10.6135V18.498C4.24528 19.335 4.92456 20.0143 5.76153 20.0143H18.498C19.335 20.0143 20.0143 19.335 20.0143 18.498V10.6135C20.0143 9.77656 19.335 9.09728 18.498 9.09728H5.76153Z" fill="#3BAC7B"/>
</g>
</svg>
