<svg width="8" height="14" viewBox="0 0 8 14" fill="none" xmlns="http://www.w3.org/2000/svg">
<path d="M0.461987 12.9657C0.286233 12.7899 0.1875 12.5515 0.1875 12.3029C0.1875 12.0543 0.286233 11.8159 0.461987 11.6401L5.10261 6.9995L0.461987 2.35887C0.291214 2.18206 0.196719 1.94524 0.198855 1.69943C0.200991 1.45362 0.299587 1.21849 0.473407 1.04467C0.647227 0.870847 0.882363 0.772252 1.12817 0.770116C1.37398 0.767981 1.6108 0.862474 1.78761 1.03325L7.09105 6.33668C7.2668 6.51249 7.36554 6.75091 7.36554 6.9995C7.36554 7.24809 7.2668 7.4865 7.09105 7.66231L1.78761 12.9657C1.6118 13.1415 1.37339 13.2402 1.1248 13.2402C0.876208 13.2402 0.637795 13.1415 0.461987 12.9657Z" fill="black"/>
</svg>
