  <svg width="8" height="14" viewBox="0 0 8 14" fill="none" xmlns="http://www.w3.org/2000/svg">
                  <path
                    d="M7.53801 12.9657C7.71377 12.7899 7.8125 12.5515 7.8125 12.3029C7.8125 12.0543 7.71377 11.8159 7.53801 11.6401L2.89739 6.9995L7.53801 2.35887C7.70879 2.18206 7.80328 1.94524 7.80115 1.69943C7.79901 1.45362 7.70041 1.21849 7.52659 1.04467C7.35277 0.870847 7.11764 0.772252 6.87183 0.770116C6.62602 0.767981 6.3892 0.862474 6.21239 1.03325L0.908951 6.33668C0.733197 6.51249 0.634464 6.75091 0.634464 6.9995C0.634464 7.24809 0.733197 7.4865 0.908951 7.66231L6.21239 12.9657C6.3882 13.1415 6.62661 13.2402 6.8752 13.2402C7.12379 13.2402 7.36221 13.1415 7.53801 12.9657Z"
                    fill="black"
                  />
                </svg>