<svg xmlns="http://www.w3.org/2000/svg" width="178" height="53" fill="inherit" xmlns:v="https://vecta.io/nano"><g clip-path="url(#A)"><path d="M38.239 0C35.21 0 32.75 2.46 32.75 5.489s2.46 5.489 5.489 5.489 5.489-2.46 5.489-5.489S41.268 0 38.239 0z" fill="#f79825"/><path d="M33.223 22.132c-.361.208-.745.305-1.138.305-.793 0-1.563-.409-1.987-1.146-.625-1.098-.248-2.492.841-3.117l3.654-2.091a1.08 1.08 0 0 1 .192-.096C30.642 7.853 22.196 2.284 12.444 2.284 7.917 2.284 3.662 3.494 0 5.593v30.29l5.625-3.229L11.98 8.125c.104-.833.665-1.587 1.522-1.875 1.194-.409 2.492.224 2.909 1.418l5.409 15.698 2.276-1.306c1.098-.625 2.492-.248 3.125.849.625 1.098.248 2.492-.841 3.117l-3.037 1.747 3.005 8.734c.409 1.194-.224 2.492-1.418 2.909a2.21 2.21 0 0 1-.745.128 2.29 2.29 0 0 1-2.164-1.547l-2.724-7.901-9.728 5.561-4.087 15.786a24.99 24.99 0 0 0 6.963.978c13.847 0 25.073-11.226 25.073-25.065a25.07 25.07 0 0 0-1.026-7.108l-3.269 1.883z" fill="#e01033"/><path d="M26.221 45.354a2.26 2.26 0 0 1-2.26-2.26c0-1.242 1.01-2.26 2.26-2.26 1.242 0 2.252 1.01 2.252 2.26s-1.01 2.26-2.252 2.26z" fill="#fff"/><g fill="#e01033"><path d="M11.172 29.472l6.611-3.79-3.213-9.319-3.397 13.11zM0 49.129l1.186.641 2.837-10.93L0 41.148v7.981z"/></g><g fill="#333"><path d="M65.582 18.262c0 1.482-.232 2.764-.689 3.854s-1.114 2.003-1.955 2.733c-.849.729-1.867 1.274-3.053 1.627-1.194.353-2.508.529-3.959.529a37.08 37.08 0 0 1-2.34-.088 15.21 15.21 0 0 1-2.492-.361V9.976c.785-.184 1.627-.296 2.516-.345l2.364-.072c1.426 0 2.732.168 3.918.505s2.196.865 3.045 1.579 1.498 1.619 1.955 2.708c.457 1.098.689 2.396.689 3.91zm-11.387 5.986l.713.04 1.21.016c2.083 0 3.638-.529 4.672-1.587 1.026-1.058 1.538-2.54 1.538-4.447 0-1.939-.497-3.422-1.507-4.463-1.002-1.034-2.556-1.555-4.656-1.555l-1.971.072v11.924zm16.76-14.095c0 .561-.184 1.002-.545 1.33a1.83 1.83 0 0 1-1.282.489c-.505 0-.946-.16-1.306-.489s-.545-.769-.545-1.33c0-.577.184-1.026.545-1.354s.793-.489 1.306-.489c.497 0 .921.168 1.282.489.369.329.545.777.545 1.354zm-1.811 16.659a1.49 1.49 0 0 1-1.49-1.491v-9.912a1.49 1.49 0 1 1 2.981 0v9.912c0 .817-.665 1.491-1.49 1.491zm14.73-1.306c0 2.051-.521 3.558-1.563 4.511s-2.644 1.426-4.792 1.426c-.785 0-1.555-.064-2.308-.2l-.817-.168a1.28 1.28 0 0 1-.97-1.506c.152-.705.857-1.138 1.563-.97l.473.104a10.88 10.88 0 0 0 2.107.2c1.202 0 2.051-.248 2.564-.737s.761-1.226.761-2.196v-.489c-.297.144-.689.297-1.17.441-.489.144-1.042.224-1.667.224-.825 0-1.571-.128-2.252-.393s-1.266-.649-1.747-1.154c-.481-.513-.865-1.146-1.138-1.907s-.409-1.651-.409-2.652c0-.938.144-1.795.433-2.588.288-.785.705-1.458 1.258-2.019s1.218-.994 2.011-1.306c.785-.312 1.683-.465 2.684-.465a15.93 15.93 0 0 1 2.757.224l2.22.465v11.154zm-8.302-5.473c0 1.266.273 2.188.825 2.772s1.258.873 2.132.873a4.35 4.35 0 0 0 1.346-.2c.417-.128.761-.288 1.026-.465v-6.675l-.793-.136a9.49 9.49 0 0 0-1.186-.064c-1.082 0-1.915.361-2.492 1.074-.569.713-.857 1.651-.857 2.821zm14.223-9.88c0 .561-.184 1.002-.545 1.33a1.83 1.83 0 0 1-1.282.489c-.505 0-.945-.16-1.306-.489s-.545-.769-.545-1.33c0-.577.184-1.026.545-1.354s.793-.489 1.306-.489c.497 0 .922.168 1.282.489.369.329.545.777.545 1.354zm-1.811 16.659a1.49 1.49 0 0 1-1.491-1.491v-9.912a1.49 1.49 0 1 1 2.981 0v9.912c0 .817-.665 1.491-1.49 1.491zm5.377-16.723a1.49 1.49 0 0 1 1.547 1.49v2.348h4.584v2.492h-4.584v5.249c0 1.034.16 1.771.489 2.22.329.441.889.665 1.675.665a5.57 5.57 0 0 0 1.442-.168l.994-.32.489 2.364a10.95 10.95 0 0 1-1.354.457c-.561.16-1.218.232-1.971.232-.921 0-1.691-.12-2.308-.369s-1.106-.601-1.466-1.074c-.361-.465-.617-1.034-.761-1.699s-.224-1.426-.224-2.276V11.579c.016-.801.649-1.466 1.45-1.49zm12.804 3.509c.986 0 1.811.12 2.492.369.673.248 1.21.593 1.611 1.034s.689.986.865 1.611c.177.633.257 1.33.257 2.083v7.813l-2.084.361c-.929.136-1.971.208-3.141.208-.769 0-1.474-.072-2.115-.224-.641-.144-1.186-.385-1.635-.713a3.32 3.32 0 0 1-1.058-1.282c-.256-.529-.384-1.178-.384-1.947 0-.737.144-1.362.432-1.875a3.55 3.55 0 0 1 1.17-1.242 5.04 5.04 0 0 1 1.715-.689c.649-.136 1.33-.208 2.035-.208.329 0 .674.024 1.034.064a10.24 10.24 0 0 1 1.162.208v-.497a3.96 3.96 0 0 0-.12-.986 2 2 0 0 0-1.25-1.378c-.336-.128-.761-.192-1.266-.192a11.58 11.58 0 0 0-1.899.144l-.185.032c-.673.128-1.314-.337-1.418-1.018a1.22 1.22 0 0 1 .954-1.378l.536-.104a13.53 13.53 0 0 1 2.292-.192zm.249 11.114c.921 0 1.618-.048 2.091-.144v-3.301c-.16-.048-.401-.096-.713-.144a6.83 6.83 0 0 0-1.034-.072 6.91 6.91 0 0 0-.993.072c-.337.048-.642.136-.914.272a1.64 1.64 0 0 0-.657.553c-.168.24-.248.537-.248.898 0 .705.224 1.194.665 1.466.448.264 1.041.401 1.803.401zm12.083 1.315c-.104.609-.665 1.034-1.282.961a5.64 5.64 0 0 1-1.098-.224c-.585-.184-1.05-.441-1.394-.777s-.585-.753-.73-1.258c-.136-.497-.208-1.074-.208-1.715V8.887c0-.385.313-.705.705-.705h1.579c.385 0 .705.313.705.705v13.566c0 .361.032.665.088.913a1.42 1.42 0 0 0 .305.625c.144.168.344.305.601.393h.008c.545.192.873.753.777 1.322l-.056.321zM62.446 47.646l-.713-1.995-.713-2.019h-7.212l-.705 2.035-.705 1.987h-3.229l1.819-5.048 1.683-4.383 1.635-3.943 1.675-3.694h2.965l1.675 3.694 1.643 3.943 1.699 4.383 1.835 5.048h-3.349v-.008zm-5.032-13.775l-1.29 3.181-1.514 4.063h5.617l-1.531-4.087-1.282-3.157zm8.832 7.341c0-.954.144-1.843.441-2.676.296-.825.721-1.547 1.266-2.156.553-.609 1.218-1.082 2.011-1.426.785-.344 1.675-.521 2.66-.521a9.09 9.09 0 0 1 2.252.272c.673.168 1.082.841.905 1.514l-.016.072c-.168.649-.833 1.034-1.482.882-.449-.096-.913-.144-1.41-.144-1.17 0-2.051.369-2.66 1.098S69.3 39.89 69.3 41.22c0 1.282.288 2.3.865 3.045s1.547 1.122 2.909 1.122c.513 0 1.01-.048 1.507-.144a7.05 7.05 0 0 0 1.282-.369l.417 2.46c-.329.168-.825.313-1.49.441a10.89 10.89 0 0 1-2.059.2c-1.098 0-2.059-.168-2.869-.505s-1.482-.801-2.019-1.402-.93-1.314-1.194-2.148c-.272-.833-.401-1.739-.401-2.709zm16.138-6.771c.986 0 1.811.12 2.492.369.673.248 1.21.593 1.611 1.034s.689.986.865 1.611c.176.633.256 1.33.256 2.084v7.813l-2.083.361c-.929.136-1.971.208-3.141.208a9.16 9.16 0 0 1-2.115-.224c-.641-.144-1.186-.385-1.635-.713a3.32 3.32 0 0 1-1.058-1.282c-.256-.529-.385-1.178-.385-1.947 0-.737.144-1.362.433-1.875s.681-.922 1.17-1.242c.497-.321 1.066-.553 1.715-.689s1.33-.208 2.035-.208a9.4 9.4 0 0 1 1.034.064 10.24 10.24 0 0 1 1.162.208v-.497c0-.345-.04-.673-.12-.986a1.98 1.98 0 0 0-.433-.825c-.209-.24-.481-.425-.817-.553s-.761-.192-1.266-.192a11.58 11.58 0 0 0-1.899.144l-.184.032c-.673.128-1.314-.337-1.418-1.018a1.22 1.22 0 0 1 .954-1.378l.537-.104a12.74 12.74 0 0 1 2.292-.192zm.248 11.114c.921 0 1.619-.048 2.091-.144V42.11c-.16-.048-.401-.096-.713-.144a6.83 6.83 0 0 0-1.034-.072 6.92 6.92 0 0 0-.994.072 2.93 2.93 0 0 0-.913.273 1.64 1.64 0 0 0-.657.553c-.168.24-.248.537-.248.898 0 .705.224 1.194.665 1.466.449.264 1.042.401 1.803.401zm18.311 1.699c-.593.184-1.338.345-2.228.497-.897.144-1.835.224-2.821.224-1.018 0-1.931-.16-2.733-.473s-1.49-.761-2.059-1.346-1.002-1.29-1.306-2.123c-.305-.825-.457-1.763-.457-2.797 0-1.018.128-1.939.385-2.773s.625-1.538 1.122-2.131a5.02 5.02 0 0 1 1.795-1.37c.705-.321 1.514-.481 2.436-.481.625 0 1.17.072 1.651.224a6.94 6.94 0 0 1 1.234.497v-4.92c0-.729.529-1.354 1.25-1.474a1.49 1.49 0 0 1 1.731 1.474v16.972zm-8.55-6.09c0 1.314.313 2.348.938 3.093s1.49 1.122 2.588 1.122a10.34 10.34 0 0 0 1.218-.064l.825-.136V37.79c-.264-.184-.609-.345-1.05-.505a4.01 4.01 0 0 0-1.394-.232c-1.082 0-1.875.369-2.38 1.106-.489.737-.745 1.739-.745 3.005zm10.431.096c0-1.13.168-2.123.505-2.981s.785-1.563 1.346-2.131a5.59 5.59 0 0 1 1.923-1.282 5.92 5.92 0 0 1 2.22-.433c1.771 0 3.157.553 4.151 1.651s1.49 2.741 1.49 4.928l-.008.553-.04.553h-8.502c.08 1.034.449 1.835 1.098 2.404s1.587.849 2.821.849c.721 0 1.386-.064 1.987-.2l.537-.128a.83.83 0 0 1 1.034.665l.136.817c.064.401-.169.801-.561.922h-.008l-.986.248-1.194.184a11.68 11.68 0 0 1-1.306.072c-1.13 0-2.115-.168-2.957-.505-.833-.337-1.53-.801-2.067-1.402-.545-.601-.946-1.306-1.21-2.115-.281-.801-.409-1.699-.409-2.668zm8.646-1.33c0-.409-.056-.801-.176-1.17-.112-.369-.28-.689-.505-.962s-.497-.481-.817-.641-.705-.232-1.146-.232c-.457 0-.865.088-1.21.256-.344.176-.633.401-.873.681a3 3 0 0 0-.553.962 4.86 4.86 0 0 0-.273 1.106h5.553zm12.276.937c0-1.346-.168-2.316-.505-2.917s-.969-.898-1.883-.898c-.328 0-.689.024-1.081.072l-.89.12v10.401h-2.981V35.178a20.41 20.41 0 0 1 2.252-.465 19.15 19.15 0 0 1 2.941-.224c.889 0 1.61.112 2.179.345a4.27 4.27 0 0 1 1.419.913 5.28 5.28 0 0 1 .689-.417 8.63 8.63 0 0 1 .937-.409 9.02 9.02 0 0 1 1.098-.305 5.98 5.98 0 0 1 1.194-.12c.994 0 1.811.144 2.452.433.649.288 1.162.689 1.531 1.21s.625 1.138.761 1.875a13.12 13.12 0 0 1 .208 2.404v7.244h-2.981v-6.795c0-1.346-.168-2.316-.496-2.917s-.962-.898-1.9-.898a4.01 4.01 0 0 0-1.354.232c-.425.16-.745.304-.961.457a6.75 6.75 0 0 1 .272 1.306c.048.457.072.954.072 1.482v5.633a1.49 1.49 0 1 1-2.981 0v-5.297h.008zm23.609-6.106c-1.33 4.896-2.869 9.327-4.624 13.302a13.75 13.75 0 0 1-1.009 1.899c-.345.529-.73.962-1.162 1.306a4.18 4.18 0 0 1-1.435.753c-.537.16-1.154.232-1.859.232a6.46 6.46 0 0 1-1.41-.16c-.417-.096-.737-.2-.954-.304l.545-2.388a4.78 4.78 0 0 0 1.755.345c.777 0 1.386-.184 1.819-.553.441-.369.817-.937 1.154-1.715-.938-1.803-1.843-3.774-2.708-5.914-.633-1.554-1.21-3.173-1.739-4.856-.305-.962.424-1.939 1.434-1.939a1.5 1.5 0 0 1 1.45 1.106l.321 1.13c.24.809.497 1.627.777 2.452a64.96 64.96 0 0 0 .89 2.476c.313.817.625 1.587.937 2.292.521-1.466 1.01-3.021 1.475-4.672.456-1.651.873-3.245 1.25-4.792h3.093zm4.22 13.751a10 10 0 0 1-1.074-.064l-1.041-.176-.898-.232c-.28-.088-.489-.168-.641-.248l-.12-.064.537-2.292.2.096a8.89 8.89 0 0 0 1.13.417c.489.152 1.098.232 1.827.232.945 0 1.635-.184 2.043-.537s.601-.817.601-1.41c0-.385-.08-.705-.232-.946-.16-.256-.369-.457-.641-.609-.281-.16-.601-.272-.97-.336a7.11 7.11 0 0 0-1.194-.104.95.95 0 0 1-.953-.954v-.305a.95.95 0 0 1 .953-.953h.168a4.42 4.42 0 0 0 .85-.08c.272-.056.529-.144.745-.28a1.57 1.57 0 0 0 .529-.521c.136-.208.2-.489.2-.833 0-.272-.048-.505-.152-.697a1.5 1.5 0 0 0-.393-.473 1.53 1.53 0 0 0-.577-.272 2.94 2.94 0 0 0-.713-.088c-.545 0-1.033.08-1.45.24-.425.168-.809.353-1.146.561l-.168.104-.986-2.019.128-.088a6.79 6.79 0 0 1 .657-.369 7.59 7.59 0 0 1 .866-.369c.312-.12.657-.208 1.026-.281.36-.072.753-.104 1.153-.104.746 0 1.403.096 1.948.273.553.184 1.017.449 1.378.785.368.337.641.745.825 1.202.177.457.265.962.265 1.499a2.92 2.92 0 0 1-.537 1.731 3.66 3.66 0 0 1-.697.745l-.297.232.321.192c.4.24.761.545 1.057.922.473.585.714 1.346.714 2.252a4.54 4.54 0 0 1-.313 1.691 3.62 3.62 0 0 1-.978 1.354c-.432.377-.985.673-1.642.889-.625.184-1.411.288-2.308.288zm11.092 0c-1.554 0-2.756-.521-3.574-1.555-.809-1.018-1.226-2.436-1.226-4.215 0-1.282.193-2.436.569-3.43.385-1.002.93-1.851 1.635-2.54.705-.681 1.57-1.21 2.564-1.571.417-.144 1.242-.297 2.38-.425.04-.008.088-.008.128-.008a1.12 1.12 0 0 1 1.106 1.034c.04.601-.409 1.13-1.01 1.178l-.985.128a5.35 5.35 0 0 0-1.539.593c-.449.264-.833.617-1.154 1.034-.16.208-.296.449-.424.705l-.233.489.521-.128c.393-.096.817-.152 1.25-.152.801 0 1.499.112 2.067.345s1.042.545 1.403.946c.352.393.617.857.785 1.378.16.513.248 1.058.248 1.619a4.98 4.98 0 0 1-.264 1.571c-.176.537-.457 1.034-.825 1.474a4.59 4.59 0 0 1-1.411 1.09c-.561.296-1.242.441-2.011.441zm-.264-6.667a5.51 5.51 0 0 0-1.034.096c-.224.04-.441.096-.641.168l-.16.056-.016.224-.008.345c0 .497.032.97.104 1.402a3.77 3.77 0 0 0 .344 1.122 1.9 1.9 0 0 0 .641.729c.265.176.609.264 1.01.264.337 0 .617-.072.849-.2a1.75 1.75 0 0 0 .577-.537 2.4 2.4 0 0 0 .337-.729 2.97 2.97 0 0 0 .104-.777c0-.713-.168-1.25-.505-1.619-.32-.369-.857-.545-1.602-.545zm10.489 6.667c-1.482 0-2.66-.625-3.502-1.851-.825-1.202-1.242-2.949-1.242-5.192 0-1.106.105-2.108.321-2.973s.529-1.611.938-2.212.913-1.066 1.506-1.386c.585-.312 1.258-.473 1.987-.473 1.483 0 2.661.625 3.502 1.851.825 1.21 1.242 2.949 1.242 5.193 0 2.236-.417 3.982-1.242 5.192-.849 1.234-2.027 1.851-3.51 1.851zm0-11.731c-.376 0-.681.112-.937.337-.265.232-.473.561-.633.962-.161.417-.281.921-.353 1.499-.064.585-.104 1.218-.104 1.891s.032 1.314.104 1.891.184 1.082.353 1.499c.16.409.376.729.633.97a1.36 1.36 0 0 0 .937.337c.376 0 .673-.112.922-.337.256-.232.464-.561.625-.97.168-.417.288-.922.36-1.506a15.51 15.51 0 0 0 .113-1.891 15.41 15.41 0 0 0-.113-1.891c-.072-.577-.192-1.082-.36-1.507-.161-.409-.369-.737-.625-.97a1.41 1.41 0 0 0-.922-.312z"/></g></g><defs><clipPath id="A"><path fill="#fff" d="M0 0h177.635v52.43H0z"/></clipPath></defs></svg>